<svg xmlns:rdf="http://www.w3.org/1999/02/22-rdf-syntax-ns#" xmlns="http://www.w3.org/2000/svg" height="40" width="250" version="1.1" xmlns:cc="http://creativecommons.org/ns#" xmlns:dc="http://purl.org/dc/elements/1.1/" viewBox="0 0 249.99999 40.000001">
 <g transform="translate(0 -1012.4)" fill="#fff">
  <path d="m30.316 1028.2v12.8h-5.525v-12.8h-5.65v-4.4h16.8v4.4h-5.625z"/>
  <path d="m48.298 1041-0.725-2.425h-6.025l-0.725 2.425h-5.65l6.275-17.2h6.425l6.275 17.2h-5.85zm-5.6-6.275h3.725l-1.8-6.125h-0.1l-1.825 6.125z"/>
  <path d="m72.532 1029q0 1.575-0.85 2.85t-2.475 1.875l3.825 7.2h-6.2l-3.05-6.275h-2.05v6.275h-5.525v-17.2h10.525q1.85 0 3.15 0.725 1.325 0.7 1.975 1.925 0.675 1.2 0.675 2.625zm-5.625 0.225q0-0.675-0.45-1.125t-1.1-0.45h-3.625v3.175h3.625q0.65 0 1.1-0.45 0.45-0.475 0.45-1.15z"/>
  <path d="m83.851 1023.5q2.475 0 4.45 0.75t3.125 2.225q1.175 1.45 1.175 3.55h-5.275q0-1.075-0.95-1.725-0.95-0.675-2.3-0.675-1.95 0-2.95 1.05-1 1.025-1 2.925v1.6q0 1.9 1 2.95 1 1.025 2.95 1.025 1.35 0 2.3-0.625 0.95-0.65 0.95-1.65h-3.9v-3.5h9.175v9.6h-2.85l-0.55-1.7q-2.35 2-6.15 2-4.275 0-6.425-2.225-2.15-2.25-2.15-6.675 0-4.375 2.425-6.625 2.45-2.275 6.95-2.275z"/>
  <path d="m96.05 1023.8h14.875v4.125h-9.35v2.375h8v3.95h-8v2.625h9.525v4.125h-15.05v-17.2z"/>
  <path d="m124.02 1028.2v12.8h-5.525v-12.8h-5.65v-4.4h16.8v4.4h-5.625z"/>
  <path d="m140.53 1023.8h5.525v12.8h8.825v4.4h-14.35v-17.2z"/>
  <path d="m165.34 1023.5q4.45 0 6.875 2.275t2.425 6.625-2.425 6.625-6.875 2.275-6.875-2.25q-2.4-2.275-2.4-6.65t2.4-6.625q2.425-2.275 6.875-2.275zm0 4.125q-1.775 0-2.7 1.075t-0.925 2.9v1.6q0 1.825 0.925 2.9t2.7 1.075 2.7-1.075q0.95-1.075 0.95-2.9v-1.6q0-1.825-0.95-2.9-0.925-1.075-2.7-1.075z"/>
  <path d="m185.84 1023.5q3.825 0 6.05 1.925 2.225 1.9 2.225 5.45h-5.275q0-1.5-0.8-2.375-0.775-0.875-2.225-0.875-1.675 0-2.475 1.05-0.775 1.05-0.775 2.925v1.6q0 1.85 0.775 2.925 0.8 1.05 2.425 1.05 1.6 0 2.425-0.825t0.825-2.325h5.1q0 3.525-2.175 5.4-2.15 1.875-6.1 1.875-4.4 0-6.675-2.25-2.25-2.25-2.25-6.65t2.25-6.65q2.275-2.25 6.675-2.25z"/>
  <path d="m208.6 1041-0.725-2.425h-6.025l-0.725 2.425h-5.65l6.275-17.2h6.425l6.275 17.2h-5.85zm-5.6-6.275h3.725l-1.8-6.125h-0.1l-1.825 6.125z"/>
  <path d="m216.51 1023.8h5.525v12.8h8.825v4.4h-14.35v-17.2z"/>
 </g>
</svg>
